<?xml version="1.0" encoding="UTF-8"?>
<svg id="Layer_1" data-name="Layer 1" xmlns="http://www.w3.org/2000/svg" viewBox="0 0 820.25 778.36">
  <defs>
    <style>
      .cls-1 {
        font-family: MyriadPro-Regular, 'Myriad Pro';
        font-size: 158.99px;
      }

      .cls-1, .cls-2 {
        fill: #fff;
      }

      .cls-2 {
        stroke-width: 0px;
      }
    </style>
  </defs>
  <path class="cls-2" d="M759.2,302.91c0,40.18-12.93,77.34-34.85,107.52-18.71,25.81-44.01,46.51-73.4,59.68-22.78,10.21-48.02,15.88-74.6,15.88H61.05v-74.76l.8-.8,214.58-214.58H61.05v-75.56s323.04,0,323.04,0v74.76l-.8.8-214.56,214.58h126.29s293.55.01,293.55.01c.01-.01.04-.01.06-.01,53.94-6.08,95.82-51.91,95.82-107.52,0-59.78-48.38-108.24-108.09-108.24s-108.09,48.47-108.09,108.24c0,3.67.18,7.3.54,10.87l-60.57,61.22c-9.49-22.13-14.73-46.49-14.73-72.09,0-101.13,81.88-183.1,182.85-183.1s182.85,81.98,182.85,183.1Z"/>
  <text class="cls-1" transform="translate(61.05 658.56) scale(1.11 1)"><tspan x="0" y="0">Zane Ops</tspan></text>
</svg>