<?xml version="1.0" encoding="UTF-8"?>
<svg id="Layer_1" data-name="Layer 1" xmlns="http://www.w3.org/2000/svg" viewBox="0 0 1299.56 564.87">
  <defs>
    <style>
      .cls-1 {
        font-family: -apple-system, BlinkMacSystemFont, "Segoe UI", Roboto, Helvetica, Arial, sans-serif, "Apple Color Emoji", "Segoe UI Emoji", "Segoe UI Symbol";
        font-size: 110.55px;
      }

      .cls-1, .cls-2 {
        fill: #010101;
      }

      .cls-2 {
        stroke-width: 0px;
      }
    </style>
  </defs>
  <path class="cls-2" d="M761.78,282.44c0,35.45-11.41,68.22-30.74,94.84-16.5,22.77-38.82,41.03-64.75,52.64-20.09,9-42.36,14.01-65.8,14.01H145.97v-65.94l.71-.71,189.27-189.27h-189.98v-66.65s284.94,0,284.94,0v65.94l-.71.71-189.26,189.27h111.39s258.93.01,258.93.01c.01-.01.04-.01.05-.01,47.57-5.36,84.52-45.79,84.52-94.84,0-52.73-42.68-95.48-95.34-95.48s-95.34,42.75-95.34,95.48c0,3.24.16,6.44.48,9.59l-53.42,54c-8.37-19.52-13-41-13-63.59,0-89.2,72.22-161.51,161.29-161.51s161.29,72.31,161.29,161.51Z"/>
  <text class="cls-1" transform="translate(765.1 443.94)"><tspan x="0" y="0">Zane Ops</tspan></text>
</svg>